<svg width="17" height="16" viewBox="0 0 17 16" fill="none" xmlns="http://www.w3.org/2000/svg">
<path d="M14.5306 8.53061L10.0306 13.0306C9.88973 13.1715 9.69863 13.2507 9.49938 13.2507C9.30012 13.2507 9.10902 13.1715 8.96813 13.0306C8.82723 12.8897 8.74807 12.6986 8.74807 12.4994C8.74807 12.3001 8.82723 12.109 8.96813 11.9681L12.1875 8.74999H3C2.80109 8.74999 2.61032 8.67097 2.46967 8.53032C2.32902 8.38967 2.25 8.1989 2.25 7.99999C2.25 7.80108 2.32902 7.61031 2.46967 7.46966C2.61032 7.329 2.80109 7.24999 3 7.24999H12.1875L8.96937 4.02999C8.82848 3.88909 8.74932 3.69799 8.74932 3.49874C8.74932 3.29948 8.82848 3.10838 8.96937 2.96749C9.11027 2.82659 9.30137 2.74744 9.50062 2.74744C9.69988 2.74744 9.89098 2.82659 10.0319 2.96749L14.5319 7.46749C14.6018 7.53726 14.6573 7.62016 14.6951 7.71142C14.7329 7.80269 14.7523 7.90052 14.7522 7.99931C14.752 8.09809 14.7324 8.19588 14.6944 8.28706C14.6564 8.37824 14.6007 8.46101 14.5306 8.53061Z" fill="#60A5FA"/>
</svg>
